<svg width="28" height="28" viewBox="0 0 28 28" fill="none" xmlns="http://www.w3.org/2000/svg">
<path d="M25.7845 11.3137C25.3359 10.9211 24.8312 10.4725 24.6629 10.136C24.4947 9.79948 24.5507 9.07041 24.6068 8.45351C24.6629 7.21971 24.7751 5.87375 23.8217 4.92036C22.8683 3.96697 21.5223 4.07913 20.2885 4.13521C19.6716 4.19129 18.9426 4.19129 18.6061 4.07913C18.2696 3.96697 17.8209 3.40615 17.4283 2.95749C16.6432 2.11627 15.6898 0.994629 14.2878 0.994629C12.8857 0.994629 11.9323 2.11627 11.1472 2.95749C10.7546 3.40615 10.306 3.91088 9.96946 4.07913C9.63297 4.24738 8.90391 4.19129 8.28701 4.13521C7.10929 4.07913 5.70724 4.02305 4.75385 4.92036C3.80046 5.87375 3.91263 7.21971 3.96871 8.45351C4.02479 9.07041 4.02479 9.79948 3.91263 10.136C3.80046 10.4725 3.23964 10.9211 2.79099 11.3137C1.94976 12.0988 0.828125 13.0522 0.828125 14.4543C0.828125 15.8563 1.94976 16.8097 2.79099 17.5949C3.23964 17.9874 3.74438 18.4361 3.91263 18.7726C4.08087 19.1091 4.02479 19.8381 3.96871 20.455C3.91263 21.6327 3.85654 23.0348 4.75385 23.9882C5.70724 24.9416 7.05321 24.8294 8.28701 24.7733C8.90391 24.7172 9.63297 24.7172 9.96946 24.8294C10.306 24.9416 10.7546 25.5024 11.1472 25.951C11.9323 26.7923 12.8857 27.9139 14.2878 27.9139C15.6898 27.9139 16.6432 26.7923 17.4283 25.951C17.8209 25.5024 18.2696 24.9977 18.6061 24.8294C18.9426 24.6612 19.6716 24.7172 20.2885 24.7733C21.5223 24.8294 22.8683 24.9416 23.8217 23.9882C24.7751 23.0348 24.6629 21.6888 24.6068 20.455C24.5507 19.8381 24.5507 19.1091 24.6629 18.7726C24.7751 18.4361 25.3359 17.9874 25.7845 17.5949C26.6258 16.8097 27.7474 15.8563 27.7474 14.4543C27.7474 13.0522 26.6258 12.0988 25.7845 11.3137ZM24.2703 15.8563C23.5974 16.4732 22.9244 17.034 22.5879 17.8753C22.2514 18.7165 22.3075 19.6699 22.3636 20.5672C22.4196 21.1841 22.4757 22.1375 22.2514 22.3618C22.0271 22.5861 21.0737 22.5301 20.4568 22.474C19.5595 22.4179 18.6061 22.3618 17.7648 22.6983C16.9797 23.0348 16.3628 23.7078 15.7459 24.3808C15.2412 24.9416 14.6243 25.6706 14.2878 25.6706C13.9513 25.6706 13.3344 24.9416 12.8857 24.4368C12.3249 23.7639 11.708 23.0909 10.8668 22.7544C10.362 22.5301 9.80122 22.474 9.18432 22.474C8.84783 22.474 8.51134 22.474 8.11876 22.5301C7.50186 22.5861 6.54847 22.6422 6.32415 22.4179C6.09982 22.1936 6.1559 21.2402 6.21198 20.6233C6.26806 19.726 6.32414 18.7726 5.98765 17.9313C5.65116 17.1462 4.97818 16.5293 4.3052 15.9124C3.80046 15.4077 3.0714 14.7908 3.0714 14.4543C3.0714 14.1178 3.80046 13.5009 4.3052 13.0522C4.97818 12.4353 5.65116 11.8745 5.98765 11.0333C6.32414 10.192 6.26806 9.23866 6.21198 8.34135C6.1559 7.72445 6.09982 6.77106 6.32415 6.54673C6.54847 6.3224 7.50186 6.37849 8.11876 6.43457C9.01607 6.49065 9.96946 6.54673 10.8107 6.21024C11.5958 5.87375 12.2127 5.20077 12.8296 4.52778C13.3344 3.96697 13.9513 3.2379 14.2878 3.2379C14.6243 3.2379 15.2412 3.96697 15.6898 4.4717C16.2506 5.14468 16.8675 5.81767 17.7088 6.15416C18.55 6.49065 19.5034 6.43457 20.4007 6.37849C21.0176 6.3224 21.971 6.26632 22.1953 6.49065C22.4196 6.71498 22.3636 7.66837 22.3075 8.28527C22.2514 9.18258 22.1953 10.136 22.5318 10.9772C22.8683 11.7623 23.5413 12.3792 24.2143 12.9961C24.719 13.4448 25.4481 14.0617 25.4481 14.3982C25.4481 14.7347 24.7751 15.4077 24.2703 15.8563Z" fill="white"/>
<path d="M10.4395 16.7158L16.5059 10.6494L18.0919 12.2354L12.0254 18.3018L10.4395 16.7158Z" fill="white"/>
<path d="M11.4832 13.3346C12.4124 13.3346 13.1657 12.5814 13.1657 11.6522C13.1657 10.723 12.4124 9.96973 11.4832 9.96973C10.554 9.96973 9.80078 10.723 9.80078 11.6522C9.80078 12.5814 10.554 13.3346 11.4832 13.3346Z" fill="white"/>
<path d="M17.0907 18.9445C18.0199 18.9445 18.7731 18.1912 18.7731 17.262C18.7731 16.3329 18.0199 15.5796 17.0907 15.5796C16.1615 15.5796 15.4082 16.3329 15.4082 17.262C15.4082 18.1912 16.1615 18.9445 17.0907 18.9445Z" fill="white"/>
</svg>
