<svg width="31" height="28" viewBox="0 0 31 28" fill="none" xmlns="http://www.w3.org/2000/svg">
<path d="M28.1417 7.57585H26.2988C25.6953 6.14018 24.7963 4.81634 23.6575 3.71252C21.8677 1.97753 19.5503 0.84702 17.1326 0.529227C13.1261 0.00260931 9.19936 1.53706 6.62877 4.63385C5.89107 5.52259 5.29075 6.51714 4.8476 7.57585H2.99941C1.52108 7.57585 0.318359 8.77857 0.318359 10.2569V13.8316C0.318359 15.31 1.52108 16.5127 2.99941 16.5127H6.66053L6.27767 15.3414C5.162 11.9279 5.79127 8.44129 8.00409 5.77544C10.18 3.15397 13.5056 1.85527 16.8996 2.30134C21.1509 2.86013 24.5932 6.19881 25.2705 10.4204C25.7327 13.3011 24.9263 16.212 23.0581 18.4069C21.1856 20.6068 18.4615 21.8708 15.5843 21.8748C14.0984 21.8768 12.8896 23.0796 12.8896 24.5558C12.8896 26.0341 14.0923 27.2369 15.5706 27.2369C17.0489 27.2369 18.2516 26.0341 18.2516 24.5558V23.3485C20.6324 22.7831 22.7967 21.4717 24.4192 19.5654C25.2074 18.6395 25.8349 17.6164 26.2951 16.5126H28.1417C29.62 16.5126 30.8227 15.3099 30.8227 13.8316V10.2568C30.8227 8.77857 29.62 7.57585 28.1417 7.57585ZM4.25443 14.7253H2.99941C2.50663 14.7253 2.10572 14.3244 2.10572 13.8316V10.2569C2.10572 9.76412 2.50663 9.36322 2.99941 9.36322H4.2651C4.23328 9.49715 4.20385 9.6318 4.17692 9.7668C3.85073 11.4012 3.87724 13.0643 4.25443 14.7253ZM16.4642 24.5558C16.4642 25.0486 16.0633 25.4495 15.5705 25.4495C15.0778 25.4495 14.6769 25.0486 14.6769 24.5558C14.6769 24.0637 15.085 23.6628 15.5867 23.6621C15.8806 23.6617 16.1735 23.6502 16.4642 23.6278V24.5558ZM29.0354 13.8316C29.0354 14.3244 28.6344 14.7253 28.1417 14.7253H26.8754C27.2302 13.2329 27.2847 11.6923 27.0352 10.1373C26.9936 9.87762 26.9419 9.61947 26.8815 9.36322H28.1417C28.6344 9.36322 29.0354 9.76412 29.0354 10.2569V13.8316Z" fill="white"/>
<path d="M11.1016 11.1494H12.8889V12.9368H11.1016V11.1494Z" fill="white"/>
<path d="M14.6777 11.1494H16.4651V12.9368H14.6777V11.1494Z" fill="white"/>
<path d="M18.252 11.1494H20.0393V12.9368H18.252V11.1494Z" fill="white"/>
<path d="M7.52734 18.3014V20.0887H15.5705C20.0055 20.0887 23.6136 16.4806 23.6136 12.0456C23.6136 7.61059 20.0055 4.00244 15.5705 4.00244C11.1355 4.00244 7.52734 7.61059 7.52734 12.0456C7.52734 13.8531 8.13439 15.6008 9.24494 17.0138C9.0295 17.7671 8.34161 18.3014 7.52734 18.3014ZM15.5705 5.78981C19.0199 5.78981 21.8263 8.59615 21.8263 12.0456C21.8263 15.495 19.0199 18.3014 15.5705 18.3014H10.624C10.8801 17.8582 11.0396 17.3621 11.0871 16.8433L11.1222 16.4607L10.8685 16.1721C9.86659 15.0313 9.31471 13.5658 9.31471 12.0456C9.31471 8.59615 12.121 5.78981 15.5705 5.78981Z" fill="white"/>
</svg>
