<svg width="24" height="25" viewBox="0 0 24 25" fill="none" xmlns="http://www.w3.org/2000/svg">
<path d="M9.6654 14.4456C7.45041 12.2306 6.95027 10.0156 6.83744 9.12819C6.80592 8.88281 6.89036 8.63673 7.06591 8.46241L8.85838 6.67074C9.12206 6.40722 9.16885 5.99655 8.97121 5.68047L6.11725 1.2489C5.8986 0.898904 5.44965 0.772588 5.08058 0.95722L0.498963 3.11499C0.200508 3.26195 0.0249603 3.57906 0.0588466 3.91C0.29891 6.19061 1.29317 11.7969 6.80264 17.3068C12.3121 22.8166 17.9176 23.8105 20.1994 24.0505C20.5303 24.0844 20.8474 23.9089 20.9944 23.6104L23.1522 19.0288C23.3361 18.6605 23.2106 18.2128 22.8621 17.9937L18.4305 15.1406C18.1146 14.9427 17.704 14.9892 17.4403 15.2526L15.6486 17.0451C15.4743 17.2206 15.2282 17.3051 14.9828 17.2735C14.0954 17.1607 11.8804 16.6606 9.6654 14.4456Z" fill="white"/>
<path d="M18.4614 13.2543C18.0194 13.2543 17.6612 12.896 17.6612 12.4541C17.6574 9.14103 14.9726 6.45622 11.6596 6.45248C11.2176 6.45248 10.8594 6.09421 10.8594 5.65226C10.8594 5.21032 11.2176 4.85205 11.6596 4.85205C15.8561 4.85668 19.257 8.25751 19.2616 12.4541C19.2616 12.896 18.9033 13.2543 18.4614 13.2543Z" fill="white"/>
<path d="M22.4625 13.2529C22.0205 13.2529 21.6622 12.8946 21.6622 12.4527C21.6561 6.93094 17.1813 2.45621 11.6596 2.45003C11.2176 2.45003 10.8594 2.09177 10.8594 1.64982C10.8594 1.20788 11.2176 0.849609 11.6596 0.849609C18.0649 0.856666 23.2556 6.04741 23.2627 12.4527C23.2627 12.6649 23.1784 12.8685 23.0283 13.0185C22.8782 13.1686 22.6747 13.2529 22.4625 13.2529Z" fill="white"/>
</svg>
