<svg width="94" height="68" viewBox="0 0 94 68" fill="none" xmlns="http://www.w3.org/2000/svg">
<path d="M59.0485 26.3145L57.3171 22.208C57.3171 22.208 61.3348 13.1419 60.986 12.7931L55.6649 7.59569C55.2939 7.23736 46.2215 11.3724 46.2215 11.3724L42.0357 9.68225C42.0357 9.68225 38.3287 0.492493 37.8277 0.492493H30.3122C29.7922 0.492493 26.3738 9.70762 26.3738 9.70762L22.1911 11.4041C22.1911 11.4041 12.9253 7.46567 12.5701 7.80498L7.25223 13.015C6.88439 13.3797 11.1178 22.2619 11.1178 22.2619L9.39271 26.3684C9.39271 26.3684 0 29.9803 0 30.475V37.8382C0 38.3455 9.4149 41.6974 9.4149 41.6974L11.1431 45.7912C11.1431 45.7912 7.12222 54.8636 7.47421 55.2125L12.7984 60.4162C13.1568 60.7682 22.2355 56.6268 22.2355 56.6268L26.4245 58.3296C26.4245 58.3296 30.122 67.513 30.6294 67.513H38.1448C38.6617 67.513 42.0896 58.2979 42.0896 58.2979L46.2754 56.6014C46.2754 56.6014 55.5286 60.5399 55.8869 60.2006L61.208 54.9905C61.5726 54.6385 57.3361 45.75 57.3361 45.75L59.0675 41.6435C59.0675 41.6435 68.4634 38.0189 68.4634 37.5242V30.1674C68.4666 29.6632 59.0485 26.3145 59.0485 26.3145ZM34.2317 44.7384C28.1908 44.7384 23.263 39.9184 23.263 33.998C23.263 28.084 28.1908 23.2639 34.2317 23.2639C40.2821 23.2639 45.2004 28.084 45.2004 33.998C45.2004 39.9216 40.2821 44.7384 34.2317 44.7384Z" fill="#00CD95"/>
<path d="M90.496 17.7386L90.5404 15.595C90.5404 15.595 94.0857 12.4049 94.0001 12.1829L92.6873 8.8596C92.589 8.63129 87.7911 8.663 87.7911 8.663L86.288 7.10283C86.288 7.10283 86.472 2.33989 86.2468 2.24158L82.9457 0.760693C82.7111 0.656048 79.4037 4.04275 79.4037 4.04275L77.2346 3.95713C77.2346 3.95713 73.9399 0.408704 73.7179 0.494323L70.3534 1.74055C70.1283 1.81983 70.2393 6.55424 70.2393 6.55424L68.6696 8.02244C68.6696 8.02244 63.84 7.76241 63.7417 7.97805L62.2926 11.2125C62.1911 11.4409 65.6697 14.761 65.6697 14.761L65.6254 16.8919C65.6254 16.8919 62.0833 20.0884 62.1689 20.3103L63.4849 23.6368C63.58 23.8588 68.3778 23.8239 68.3778 23.8239L69.8778 25.3904C69.8778 25.3904 69.7033 30.1533 69.9285 30.2516L73.2296 31.7262C73.4579 31.8308 76.7685 28.4632 76.7685 28.4632L78.9407 28.5361C78.9407 28.5361 82.2291 32.0845 82.4574 32.0052L85.8124 30.759C86.0439 30.6797 85.9329 25.939 85.9329 25.939L87.4994 24.4835C87.4994 24.4835 92.3289 24.7308 92.4304 24.5152L93.8796 21.2807C93.9715 21.0587 90.496 17.7386 90.496 17.7386ZM82.9077 18.395C81.7439 20.9953 78.6362 22.1496 75.9726 20.9604C73.3215 19.7776 72.1038 16.6921 73.2676 14.0855C74.4251 11.4916 77.5422 10.3437 80.1932 11.5265C82.8474 12.722 84.0651 15.8011 82.9077 18.395Z" fill="#00CD95"/>
</svg>
