<svg width="63" height="74" viewBox="0 0 63 74" fill="none" xmlns="http://www.w3.org/2000/svg">
<path fill-rule="evenodd" clip-rule="evenodd" d="M30.444 73.6805C30.8537 73.8946 31.3119 74.0035 31.7701 73.9998C32.2282 73.9962 32.6827 73.8837 33.0961 73.666L46.2973 66.6091C50.0408 64.6136 52.9724 62.3822 55.2595 59.7844C60.2322 54.1244 62.9477 46.9005 62.8993 39.4518L62.7429 14.8813C62.728 12.0513 60.8692 9.52606 58.1202 8.60811L33.5617 0.368388C32.0829 -0.132309 30.4626 -0.121424 29.0099 0.393785L4.54453 8.9274C1.81043 9.88162 -0.014785 12.425 0.000114723 15.2587L0.156562 39.811C0.204986 47.2706 3.01358 54.4618 8.06832 60.0638C10.3778 62.6253 13.3354 64.824 17.1199 66.7869L30.444 73.6805ZM26.9477 44.8094C27.499 45.3391 28.2142 45.6003 28.9294 45.5931C29.6446 45.5895 30.356 45.321 30.8999 44.784L45.3265 30.5613C46.4105 29.491 46.3993 27.7712 45.3042 26.7154C44.2053 25.6595 42.436 25.6668 41.352 26.7371L28.8884 39.0223L23.7853 34.117C22.6864 33.0611 20.9208 33.072 19.8331 34.1424C18.7492 35.2127 18.7603 36.9325 19.8592 37.9883L26.9477 44.8094Z" fill="#00CD95"/>
</svg>
