<svg width="74" height="74" viewBox="0 0 74 74" fill="none" xmlns="http://www.w3.org/2000/svg">
<path fill-rule="evenodd" clip-rule="evenodd" d="M37 74C16.576 74 0 57.461 0 37C0 16.576 16.576 0 37 0C57.461 0 74 16.576 74 37C74 57.461 57.461 74 37 74ZM48.8039 50.7281C49.2479 50.9871 49.7289 51.1351 50.2469 51.1351C51.1719 51.1351 52.0969 50.6541 52.6149 49.7661C53.3919 48.4711 52.9849 46.7691 51.6529 45.9551L38.4809 38.1111V21.0171C38.4809 19.4631 37.2229 18.2421 35.7059 18.2421C34.1889 18.2421 32.9309 19.4631 32.9309 21.0171V39.7021C32.9309 40.6641 33.4489 41.5521 34.2999 42.0701L48.8039 50.7281Z" fill="#00CD95"/>
</svg>
