<svg width="74" height="74" viewBox="0 0 74 74" fill="none" xmlns="http://www.w3.org/2000/svg">
<path d="M50.1523 26.3047C37.0027 26.3047 26.3047 37.0027 26.3047 50.1523C26.3047 63.3019 37.0027 74 50.1523 74C63.3019 74 74 63.3019 74 50.1523C74 37.0027 63.3019 26.3047 50.1523 26.3047ZM50.1523 47.9844C53.7387 47.9844 56.6562 50.9019 56.6562 54.4883C56.6562 57.311 54.8383 59.6949 52.3203 60.5928V65.3281H47.9844V60.5928C45.4664 59.6949 43.6484 57.311 43.6484 54.4883H47.9844C47.9844 55.6844 48.9562 56.6562 50.1523 56.6562C51.3485 56.6562 52.3203 55.6844 52.3203 54.4883C52.3203 53.2921 51.3485 52.3203 50.1523 52.3203C46.5659 52.3203 43.6484 49.4028 43.6484 45.8164C43.6484 42.9937 45.4664 40.6098 47.9844 39.7118V34.9766H52.3203V39.7118C54.8383 40.6098 56.6562 42.9937 56.6562 45.8164H52.3203C52.3203 44.6203 51.3485 43.6484 50.1523 43.6484C48.9562 43.6484 47.9844 44.6203 47.9844 45.8164C47.9844 47.0125 48.9562 47.9844 50.1523 47.9844Z" fill="#00CD95"/>
<path d="M24.1367 26.3047C37.5088 26.3047 47.9844 20.5905 47.9844 13.2969C47.9844 6.00325 37.5088 0 24.1367 0C10.7647 0 0 6.00325 0 13.2969C0 20.5905 10.7647 26.3047 24.1367 26.3047Z" fill="#00CD95"/>
<path d="M0 48.7894V52.3219C0 59.6155 10.7647 65.3297 24.1367 65.3297C24.8952 65.3297 25.6302 65.2599 26.377 65.2234C24.714 62.6086 23.4738 59.7073 22.7434 56.6057C13.0736 56.3387 4.67732 53.3673 0 48.7894Z" fill="#00CD95"/>
<path d="M22.073 52.2115C22.0232 51.5296 21.9688 50.8484 21.9688 50.1539C21.9688 47.8939 22.2649 45.7066 22.7699 43.599C13.088 43.3367 4.68151 40.3637 0 35.7816V39.3141C0 46.2208 9.72146 51.6487 22.073 52.2115Z" fill="#00CD95"/>
<path d="M24.1367 39.3141C24.139 39.3141 24.1409 39.3138 24.1434 39.3138C25.5732 35.8965 27.6517 32.816 30.2329 30.2349C28.2749 30.4824 26.2515 30.6422 24.1367 30.6422C13.8436 30.6422 4.90337 27.5728 0 22.7738V26.3063C0 33.5999 10.7647 39.3141 24.1367 39.3141Z" fill="#00CD95"/>
</svg>
