<svg width="257" height="47" viewBox="0 0 257 47" fill="none" xmlns="http://www.w3.org/2000/svg">
<rect opacity="0.35" x="115" width="1" height="47" fill="#272727"/>
<path d="M141.94 11.4C143.068 11.4 144.01 11.778 144.766 12.534C145.522 13.29 145.9 14.232 145.9 15.36C145.9 16.488 145.522 17.43 144.766 18.186C144.01 18.942 143.068 19.32 141.94 19.32H138.7V24H137.44V11.4H141.94ZM141.94 18.132C142.72 18.132 143.362 17.874 143.866 17.358C144.382 16.83 144.64 16.164 144.64 15.36C144.64 14.556 144.382 13.896 143.866 13.38C143.362 12.852 142.72 12.588 141.94 12.588H138.7V18.132H141.94ZM151.314 14.784C152.646 14.784 153.72 15.258 154.536 16.206C155.364 17.142 155.778 18.252 155.778 19.536C155.778 19.668 155.766 19.854 155.742 20.094H147.84C147.96 21.006 148.344 21.732 148.992 22.272C149.652 22.8 150.462 23.064 151.422 23.064C152.106 23.064 152.694 22.926 153.186 22.65C153.69 22.362 154.068 21.99 154.32 21.534L155.364 22.146C154.968 22.782 154.428 23.286 153.744 23.658C153.06 24.03 152.28 24.216 151.404 24.216C149.988 24.216 148.836 23.772 147.948 22.884C147.06 21.996 146.616 20.868 146.616 19.5C146.616 18.156 147.054 17.034 147.93 16.134C148.806 15.234 149.934 14.784 151.314 14.784ZM151.314 15.936C150.378 15.936 149.592 16.218 148.956 16.782C148.332 17.334 147.96 18.054 147.84 18.942H154.554C154.434 17.994 154.068 17.256 153.456 16.728C152.844 16.2 152.13 15.936 151.314 15.936ZM166.488 15V24H165.3V16.818L162.15 21.93H162.006L158.856 16.818V24H157.668V15H159.036L162.078 19.932L165.12 15H166.488ZM176.548 22.866C175.636 23.766 174.52 24.216 173.2 24.216C171.88 24.216 170.758 23.766 169.834 22.866C168.922 21.954 168.466 20.832 168.466 19.5C168.466 18.168 168.922 17.052 169.834 16.152C170.758 15.24 171.88 14.784 173.2 14.784C174.52 14.784 175.636 15.24 176.548 16.152C177.472 17.052 177.934 18.168 177.934 19.5C177.934 20.832 177.472 21.954 176.548 22.866ZM170.68 22.038C171.364 22.722 172.204 23.064 173.2 23.064C174.196 23.064 175.036 22.722 175.72 22.038C176.404 21.342 176.746 20.496 176.746 19.5C176.746 18.504 176.404 17.664 175.72 16.98C175.036 16.284 174.196 15.936 173.2 15.936C172.204 15.936 171.364 16.284 170.68 16.98C169.996 17.664 169.654 18.504 169.654 19.5C169.654 20.496 169.996 21.342 170.68 22.038ZM186.294 15H187.482V24H186.294V20.076H181.11V24H179.922V15H181.11V18.924H186.294V15ZM196.474 15V16.152H193.288V24H192.1V16.152H188.914V15H196.474ZM141.904 37.374C142.948 37.77 143.47 38.49 143.47 39.534C143.47 40.278 143.176 40.914 142.588 41.442C142.012 41.958 141.184 42.216 140.104 42.216C138.292 42.216 137.104 41.496 136.54 40.056L137.548 39.462C137.92 40.53 138.772 41.064 140.104 41.064C140.8 41.064 141.334 40.914 141.706 40.614C142.09 40.314 142.282 39.93 142.282 39.462C142.282 39.042 142.126 38.7 141.814 38.436C141.502 38.172 141.082 38.04 140.554 38.04H139.24V36.888H140.194C140.71 36.888 141.112 36.762 141.4 36.51C141.7 36.246 141.85 35.886 141.85 35.43C141.85 34.998 141.676 34.644 141.328 34.368C140.98 34.08 140.512 33.936 139.924 33.936C138.796 33.936 138.046 34.386 137.674 35.286L136.684 34.71C137.284 33.426 138.364 32.784 139.924 32.784C140.872 32.784 141.628 33.036 142.192 33.54C142.756 34.032 143.038 34.638 143.038 35.358C143.038 36.282 142.66 36.954 141.904 37.374ZM153.016 33H154.204V42H153.016V40.236C152.188 41.556 150.976 42.216 149.38 42.216C148.096 42.216 146.998 41.76 146.086 40.848C145.186 39.936 144.736 38.82 144.736 37.5C144.736 36.18 145.186 35.064 146.086 34.152C146.998 33.24 148.096 32.784 149.38 32.784C150.976 32.784 152.188 33.444 153.016 34.764V33ZM146.95 40.038C147.634 40.722 148.474 41.064 149.47 41.064C150.466 41.064 151.306 40.722 151.99 40.038C152.674 39.342 153.016 38.496 153.016 37.5C153.016 36.504 152.674 35.664 151.99 34.98C151.306 34.284 150.466 33.936 149.47 33.936C148.474 33.936 147.634 34.284 146.95 34.98C146.266 35.664 145.924 36.504 145.924 37.5C145.924 38.496 146.266 39.342 146.95 40.038ZM168.779 33V42H167.591V34.152H162.407V42H161.219V33H168.779ZM179.031 33H180.219V42H179.031V40.236C178.203 41.556 176.991 42.216 175.395 42.216C174.111 42.216 173.013 41.76 172.101 40.848C171.201 39.936 170.751 38.82 170.751 37.5C170.751 36.18 171.201 35.064 172.101 34.152C173.013 33.24 174.111 32.784 175.395 32.784C176.991 32.784 178.203 33.444 179.031 34.764V33ZM172.965 40.038C173.649 40.722 174.489 41.064 175.485 41.064C176.481 41.064 177.321 40.722 178.005 40.038C178.689 39.342 179.031 38.496 179.031 37.5C179.031 36.504 178.689 35.664 178.005 34.98C177.321 34.284 176.481 33.936 175.485 33.936C174.489 33.936 173.649 34.284 172.965 34.98C172.281 35.664 171.939 36.504 171.939 37.5C171.939 38.496 172.281 39.342 172.965 40.038ZM187.559 32.784C188.843 32.784 189.935 33.24 190.835 34.152C191.747 35.064 192.203 36.18 192.203 37.5C192.203 38.82 191.747 39.936 190.835 40.848C189.935 41.76 188.843 42.216 187.559 42.216C185.963 42.216 184.751 41.556 183.923 40.236V45.6H182.735V33H183.923V34.764C184.751 33.444 185.963 32.784 187.559 32.784ZM184.949 40.038C185.633 40.722 186.473 41.064 187.469 41.064C188.465 41.064 189.305 40.722 189.989 40.038C190.673 39.342 191.015 38.496 191.015 37.5C191.015 36.504 190.673 35.664 189.989 34.98C189.305 34.284 188.465 33.936 187.469 33.936C186.473 33.936 185.633 34.284 184.949 34.98C184.265 35.664 183.923 36.504 183.923 37.5C183.923 38.496 184.265 39.342 184.949 40.038ZM200.306 33H201.566L197.714 42.828C197.366 43.716 196.868 44.412 196.22 44.916C195.584 45.432 194.87 45.66 194.078 45.6V44.484C195.158 44.604 195.98 43.98 196.544 42.612L196.778 42.054L192.746 33H194.006L197.39 40.542L200.306 33ZM213.334 33H214.522V42H213.334V38.58C212.638 38.94 211.78 39.12 210.76 39.12C209.584 39.12 208.684 38.85 208.06 38.31C207.448 37.758 207.142 36.948 207.142 35.88V33H208.33V35.88C208.33 36.636 208.528 37.182 208.924 37.518C209.32 37.842 209.92 38.004 210.724 38.004C211.66 38.004 212.53 37.83 213.334 37.482V33ZM224.787 33H225.975V42H224.787V40.236C223.959 41.556 222.747 42.216 221.151 42.216C219.867 42.216 218.769 41.76 217.857 40.848C216.957 39.936 216.507 38.82 216.507 37.5C216.507 36.18 216.957 35.064 217.857 34.152C218.769 33.24 219.867 32.784 221.151 32.784C222.747 32.784 223.959 33.444 224.787 34.764V33ZM218.721 40.038C219.405 40.722 220.245 41.064 221.241 41.064C222.237 41.064 223.077 40.722 223.761 40.038C224.445 39.342 224.787 38.496 224.787 37.5C224.787 36.504 224.445 35.664 223.761 34.98C223.077 34.284 222.237 33.936 221.241 33.936C220.245 33.936 219.405 34.284 218.721 34.98C218.037 35.664 217.695 36.504 217.695 37.5C217.695 38.496 218.037 39.342 218.721 40.038ZM232.684 42.216C231.328 42.216 230.2 41.766 229.3 40.866C228.4 39.954 227.95 38.832 227.95 37.5C227.95 36.168 228.4 35.052 229.3 34.152C230.2 33.24 231.328 32.784 232.684 32.784C233.572 32.784 234.37 33 235.078 33.432C235.786 33.852 236.302 34.422 236.626 35.142L235.654 35.7C235.414 35.16 235.024 34.734 234.484 34.422C233.956 34.098 233.356 33.936 232.684 33.936C231.688 33.936 230.848 34.284 230.164 34.98C229.48 35.664 229.138 36.504 229.138 37.5C229.138 38.496 229.48 39.342 230.164 40.038C230.848 40.722 231.688 41.064 232.684 41.064C233.356 41.064 233.956 40.908 234.484 40.596C235.012 40.272 235.426 39.84 235.726 39.3L236.716 39.876C236.344 40.596 235.798 41.166 235.078 41.586C234.358 42.006 233.56 42.216 232.684 42.216ZM245.876 40.866C244.964 41.766 243.848 42.216 242.528 42.216C241.208 42.216 240.086 41.766 239.162 40.866C238.25 39.954 237.794 38.832 237.794 37.5C237.794 36.168 238.25 35.052 239.162 34.152C240.086 33.24 241.208 32.784 242.528 32.784C243.848 32.784 244.964 33.24 245.876 34.152C246.8 35.052 247.262 36.168 247.262 37.5C247.262 38.832 246.8 39.954 245.876 40.866ZM240.008 40.038C240.692 40.722 241.532 41.064 242.528 41.064C243.524 41.064 244.364 40.722 245.048 40.038C245.732 39.342 246.074 38.496 246.074 37.5C246.074 36.504 245.732 35.664 245.048 34.98C244.364 34.284 243.524 33.936 242.528 33.936C241.532 33.936 240.692 34.284 240.008 34.98C239.324 35.664 238.982 36.504 238.982 37.5C238.982 38.496 239.324 39.342 240.008 40.038ZM254.974 37.374C255.958 37.734 256.45 38.436 256.45 39.48C256.45 40.212 256.204 40.818 255.712 41.298C255.232 41.766 254.536 42 253.624 42H249.25V33H253.264C254.14 33 254.818 33.228 255.298 33.684C255.778 34.128 256.018 34.704 256.018 35.412C256.018 36.312 255.67 36.966 254.974 37.374ZM253.264 34.152H250.438V36.888H253.264C254.308 36.888 254.83 36.42 254.83 35.484C254.83 35.064 254.692 34.74 254.416 34.512C254.152 34.272 253.768 34.152 253.264 34.152ZM253.624 40.848C254.152 40.848 254.554 40.722 254.83 40.47C255.118 40.218 255.262 39.864 255.262 39.408C255.262 38.988 255.118 38.658 254.83 38.418C254.554 38.166 254.152 38.04 253.624 38.04H250.438V40.848H253.624Z" fill="#272727"/>
<path d="M7.146 21.252C5.25 21.252 3.684 20.622 2.448 19.362C1.212 18.102 0.594 16.548 0.594 14.7C0.594 12.84 1.212 11.286 2.448 10.038C3.684 8.778 5.25 8.148 7.146 8.148C8.286 8.148 9.336 8.418 10.296 8.958C11.268 9.486 12.024 10.206 12.564 11.118L10.422 12.36C10.11 11.796 9.666 11.358 9.09 11.046C8.514 10.722 7.866 10.56 7.146 10.56C5.922 10.56 4.932 10.944 4.176 11.712C3.432 12.48 3.06 13.476 3.06 14.7C3.06 15.912 3.432 16.902 4.176 17.67C4.932 18.438 5.922 18.822 7.146 18.822C7.866 18.822 8.514 18.666 9.09 18.354C9.678 18.03 10.122 17.592 10.422 17.04L12.564 18.282C12.024 19.194 11.274 19.92 10.314 20.46C9.354 20.988 8.298 21.252 7.146 21.252ZM20.8747 12H23.1967V21H20.8747V19.938C20.1787 20.814 19.2007 21.252 17.9407 21.252C16.7407 21.252 15.7087 20.796 14.8447 19.884C13.9927 18.96 13.5667 17.832 13.5667 16.5C13.5667 15.168 13.9927 14.046 14.8447 13.134C15.7087 12.21 16.7407 11.748 17.9407 11.748C19.2007 11.748 20.1787 12.186 20.8747 13.062V12ZM16.5907 18.336C17.0587 18.804 17.6527 19.038 18.3727 19.038C19.0927 19.038 19.6867 18.804 20.1547 18.336C20.6347 17.856 20.8747 17.244 20.8747 16.5C20.8747 15.756 20.6347 15.15 20.1547 14.682C19.6867 14.202 19.0927 13.962 18.3727 13.962C17.6527 13.962 17.0587 14.202 16.5907 14.682C16.1227 15.15 15.8887 15.756 15.8887 16.5C15.8887 17.244 16.1227 17.856 16.5907 18.336ZM31.2062 12H33.5282V21H31.2062V17.58H27.6242V21H25.3022V12H27.6242V15.402H31.2062V12ZM8.082 39L5.544 34.626H3.654V39H1.17V26.4H6.21C7.374 26.4 8.364 26.808 9.18 27.624C9.996 28.44 10.404 29.424 10.404 30.576C10.404 31.356 10.182 32.082 9.738 32.754C9.294 33.414 8.706 33.912 7.974 34.248L10.764 39H8.082ZM3.654 28.722V32.448H6.21C6.678 32.448 7.08 32.268 7.416 31.908C7.752 31.536 7.92 31.092 7.92 30.576C7.92 30.06 7.752 29.622 7.416 29.262C7.08 28.902 6.678 28.722 6.21 28.722H3.654ZM13.6236 35.454C13.9356 36.582 14.7816 37.146 16.1616 37.146C17.0496 37.146 17.7216 36.846 18.1776 36.246L20.0496 37.326C19.1616 38.61 17.8536 39.252 16.1256 39.252C14.6376 39.252 13.4436 38.802 12.5436 37.902C11.6436 37.002 11.1936 35.868 11.1936 34.5C11.1936 33.144 11.6376 32.016 12.5256 31.116C13.4136 30.204 14.5536 29.748 15.9456 29.748C17.2656 29.748 18.3516 30.204 19.2036 31.116C20.0676 32.028 20.4996 33.156 20.4996 34.5C20.4996 34.8 20.4696 35.118 20.4096 35.454H13.6236ZM13.5876 33.654H18.1776C18.0456 33.042 17.7696 32.586 17.3496 32.286C16.9416 31.986 16.4736 31.836 15.9456 31.836C15.3216 31.836 14.8056 31.998 14.3976 32.322C13.9896 32.634 13.7196 33.078 13.5876 33.654ZM27.3586 29.748C28.5706 29.748 29.6026 30.21 30.4546 31.134C31.3186 32.046 31.7506 33.168 31.7506 34.5C31.7506 35.832 31.3186 36.96 30.4546 37.884C29.6026 38.796 28.5706 39.252 27.3586 39.252C26.0986 39.252 25.1266 38.814 24.4426 37.938V42.6H22.1206V30H24.4426V31.062C25.1266 30.186 26.0986 29.748 27.3586 29.748ZM25.1446 36.336C25.6126 36.804 26.2066 37.038 26.9266 37.038C27.6466 37.038 28.2406 36.804 28.7086 36.336C29.1886 35.856 29.4286 35.244 29.4286 34.5C29.4286 33.756 29.1886 33.15 28.7086 32.682C28.2406 32.202 27.6466 31.962 26.9266 31.962C26.2066 31.962 25.6126 32.202 25.1446 32.682C24.6766 33.15 24.4426 33.756 24.4426 34.5C24.4426 35.244 24.6766 35.856 25.1446 36.336ZM40.2282 30H42.5502V39H40.2282V37.938C39.5322 38.814 38.5542 39.252 37.2942 39.252C36.0942 39.252 35.0622 38.796 34.1982 37.884C33.3462 36.96 32.9202 35.832 32.9202 34.5C32.9202 33.168 33.3462 32.046 34.1982 31.134C35.0622 30.21 36.0942 29.748 37.2942 29.748C38.5542 29.748 39.5322 30.186 40.2282 31.062V30ZM35.9442 36.336C36.4122 36.804 37.0062 37.038 37.7262 37.038C38.4462 37.038 39.0402 36.804 39.5082 36.336C39.9882 35.856 40.2282 35.244 40.2282 34.5C40.2282 33.756 39.9882 33.15 39.5082 32.682C39.0402 32.202 38.4462 31.962 37.7262 31.962C37.0062 31.962 36.4122 32.202 35.9442 32.682C35.4762 33.15 35.2422 33.756 35.2422 34.5C35.2422 35.244 35.4762 35.856 35.9442 36.336ZM45.8078 28.92C45.4238 28.92 45.0878 28.782 44.7998 28.506C44.5238 28.218 44.3858 27.882 44.3858 27.498C44.3858 27.114 44.5238 26.778 44.7998 26.49C45.0878 26.202 45.4238 26.058 45.8078 26.058C46.2038 26.058 46.5398 26.202 46.8158 26.49C47.1038 26.778 47.2478 27.114 47.2478 27.498C47.2478 27.882 47.1038 28.218 46.8158 28.506C46.5398 28.782 46.2038 28.92 45.8078 28.92ZM44.6558 39V30H46.9778V39H44.6558ZM51.425 31.548C51.641 30.972 51.995 30.54 52.487 30.252C52.991 29.964 53.549 29.82 54.161 29.82V32.412C53.453 32.328 52.817 32.472 52.253 32.844C51.701 33.216 51.425 33.834 51.425 34.698V39H49.103V30H51.425V31.548Z" fill="#272727"/>
<path d="M42.7478 12V14.232H39.9398V21H37.6178V14.232H34.7738V12H42.7478ZM45.5982 17.454C45.9102 18.582 46.7562 19.146 48.1362 19.146C49.0242 19.146 49.6962 18.846 50.1522 18.246L52.0242 19.326C51.1362 20.61 49.8282 21.252 48.1002 21.252C46.6122 21.252 45.4182 20.802 44.5182 19.902C43.6182 19.002 43.1682 17.868 43.1682 16.5C43.1682 15.144 43.6122 14.016 44.5002 13.116C45.3882 12.204 46.5282 11.748 47.9202 11.748C49.2402 11.748 50.3262 12.204 51.1782 13.116C52.0422 14.028 52.4742 15.156 52.4742 16.5C52.4742 16.8 52.4442 17.118 52.3842 17.454H45.5982ZM45.5622 15.654H50.1522C50.0202 15.042 49.7442 14.586 49.3242 14.286C48.9162 13.986 48.4482 13.836 47.9202 13.836C47.2962 13.836 46.7802 13.998 46.3722 14.322C45.9642 14.634 45.6942 15.078 45.5622 15.654ZM61.8834 21H59.2014L57.2574 18.264L55.2954 21H52.6134L55.9074 16.41L52.7574 12H55.4394L57.2574 14.538L59.0754 12H61.7394L58.5894 16.392L61.8834 21ZM68.9465 12H71.2685V21H68.9465V17.58H65.3645V21H63.0425V12H65.3645V15.402H68.9465V12ZM79.894 12H81.622V21H79.354V15.888L75.124 21H73.396V12H75.664V17.112L79.894 12ZM92.0475 21H89.3475L86.0715 16.914V21H83.7495V12H86.0715V15.96L89.1675 12H91.9395L88.3215 16.446L92.0475 21Z" fill="#00CD95"/>
</svg>
