<svg width="230" height="38" viewBox="0 0 230 38" fill="none" xmlns="http://www.w3.org/2000/svg">
<path d="M57.76 1.8H59.6V13H57.76V8.152H52.96V13H51.12V1.8H52.96V6.392H57.76V1.8ZM68.0628 5H69.7908V13H68.0628V11.848C67.4121 12.7547 66.4788 13.208 65.2628 13.208C64.1641 13.208 63.2254 12.8027 62.4468 11.992C61.6681 11.1707 61.2788 10.1733 61.2788 9C61.2788 7.816 61.6681 6.81867 62.4468 6.008C63.2254 5.19733 64.1641 4.792 65.2628 4.792C66.4788 4.792 67.4121 5.24 68.0628 6.136V5ZM63.7268 10.84C64.2068 11.32 64.8094 11.56 65.5348 11.56C66.2601 11.56 66.8628 11.32 67.3428 10.84C67.8228 10.3493 68.0628 9.736 68.0628 9C68.0628 8.264 67.8228 7.656 67.3428 7.176C66.8628 6.68533 66.2601 6.44 65.5348 6.44C64.8094 6.44 64.2068 6.68533 63.7268 7.176C63.2468 7.656 63.0068 8.264 63.0068 9C63.0068 9.736 63.2468 10.3493 63.7268 10.84ZM81.2769 5H83.0049V13H71.8049V5H73.5329V11.368H76.5409V5H78.2689V11.368H81.2769V5ZM93.536 4.792C94.6347 4.792 95.5733 5.20267 96.352 6.024C97.1307 6.83467 97.52 7.82667 97.52 9C97.52 10.184 97.1307 11.1813 96.352 11.992C95.5733 12.8027 94.6347 13.208 93.536 13.208C92.32 13.208 91.3867 12.76 90.736 11.864V16.2H89.008V5H90.736V6.152C91.3867 5.24533 92.32 4.792 93.536 4.792ZM91.456 10.84C91.936 11.32 92.5387 11.56 93.264 11.56C93.9893 11.56 94.592 11.32 95.072 10.84C95.552 10.3493 95.792 9.736 95.792 9C95.792 8.264 95.552 7.656 95.072 7.176C94.592 6.68533 93.9893 6.44 93.264 6.44C92.5387 6.44 91.936 6.68533 91.456 7.176C90.976 7.656 90.736 8.264 90.736 9C90.736 9.736 90.976 10.3493 91.456 10.84ZM100.446 9.736C100.574 10.344 100.867 10.8133 101.326 11.144C101.785 11.464 102.345 11.624 103.006 11.624C103.923 11.624 104.611 11.2933 105.07 10.632L106.494 11.464C105.705 12.6267 104.537 13.208 102.99 13.208C101.689 13.208 100.638 12.8133 99.8381 12.024C99.0381 11.224 98.6381 10.216 98.6381 9C98.6381 7.80533 99.0328 6.808 99.8221 6.008C100.611 5.19733 101.625 4.792 102.862 4.792C104.035 4.792 104.995 5.20267 105.742 6.024C106.499 6.84533 106.878 7.84267 106.878 9.016C106.878 9.19733 106.857 9.43733 106.814 9.736H100.446ZM100.43 8.328H105.134C105.017 7.67733 104.745 7.18667 104.318 6.856C103.902 6.52533 103.411 6.36 102.846 6.36C102.206 6.36 101.673 6.536 101.246 6.888C100.819 7.24 100.547 7.72 100.43 8.328ZM115.471 13H113.407L110.127 9.304V13H108.399V5H110.127V8.536L113.231 5H115.343L111.823 8.92L115.471 13ZM119.768 13.208C118.595 13.208 117.598 12.8027 116.776 11.992C115.955 11.1813 115.544 10.184 115.544 9C115.544 7.816 115.955 6.81867 116.776 6.008C117.598 5.19733 118.595 4.792 119.768 4.792C120.952 4.792 121.95 5.19733 122.76 6.008C123.582 6.81867 123.992 7.816 123.992 9C123.992 10.184 123.582 11.1813 122.76 11.992C121.95 12.8027 120.952 13.208 119.768 13.208ZM117.992 10.808C118.472 11.288 119.064 11.528 119.768 11.528C120.472 11.528 121.064 11.288 121.544 10.808C122.024 10.328 122.264 9.72533 122.264 9C122.264 8.27467 122.024 7.672 121.544 7.192C121.064 6.712 120.472 6.472 119.768 6.472C119.064 6.472 118.472 6.712 117.992 7.192C117.512 7.672 117.272 8.27467 117.272 9C117.272 9.72533 117.512 10.328 117.992 10.808ZM130.083 4.792C131.182 4.792 132.12 5.20267 132.899 6.024C133.678 6.83467 134.067 7.82667 134.067 9C134.067 10.184 133.678 11.1813 132.899 11.992C132.12 12.8027 131.182 13.208 130.083 13.208C128.867 13.208 127.934 12.76 127.283 11.864V16.2H125.555V5H127.283V6.152C127.934 5.24533 128.867 4.792 130.083 4.792ZM128.003 10.84C128.483 11.32 129.086 11.56 129.811 11.56C130.536 11.56 131.139 11.32 131.619 10.84C132.099 10.3493 132.339 9.736 132.339 9C132.339 8.264 132.099 7.656 131.619 7.176C131.139 6.68533 130.536 6.44 129.811 6.44C129.086 6.44 128.483 6.68533 128.003 7.176C127.523 7.656 127.283 8.264 127.283 9C127.283 9.736 127.523 10.3493 128.003 10.84ZM142.361 11.368H143.433V15.144H141.737V13H136.249V15.144H134.553V11.368H135.529C136.019 10.6747 136.265 9.70933 136.265 8.472V5H142.361V11.368ZM137.433 11.368H140.665V6.584H137.961V8.472C137.961 9.61333 137.785 10.5787 137.433 11.368ZM146.724 6.84C146.489 7.07467 146.207 7.192 145.876 7.192C145.545 7.192 145.263 7.07467 145.028 6.84C144.793 6.60533 144.676 6.32267 144.676 5.992C144.676 5.65067 144.788 5.368 145.012 5.144C145.247 4.90933 145.535 4.792 145.876 4.792C146.207 4.792 146.489 4.90933 146.724 5.144C146.959 5.37867 147.076 5.66133 147.076 5.992C147.076 6.32267 146.959 6.60533 146.724 6.84ZM146.724 12.84C146.489 13.0747 146.207 13.192 145.876 13.192C145.545 13.192 145.263 13.0747 145.028 12.84C144.793 12.6053 144.676 12.3227 144.676 11.992C144.676 11.6613 144.788 11.3787 145.012 11.144C145.247 10.9093 145.535 10.792 145.876 10.792C146.207 10.792 146.489 10.9093 146.724 11.144C146.959 11.3787 147.076 11.6613 147.076 11.992C147.076 12.3227 146.959 12.6053 146.724 12.84Z" fill="#272727"/>
<path d="M60.08 25.2V35H59.1V26.684L55.67 32.424H55.53L52.1 26.684V35H51.12V25.2H52.338L55.6 30.66L58.862 25.2H60.08ZM68.1973 28H69.1213V35H68.1973V33.628C67.5533 34.6547 66.6106 35.168 65.3693 35.168C64.3706 35.168 63.5166 34.8133 62.8073 34.104C62.1073 33.3947 61.7573 32.5267 61.7573 31.5C61.7573 30.4733 62.1073 29.6053 62.8073 28.896C63.5166 28.1867 64.3706 27.832 65.3693 27.832C66.6106 27.832 67.5533 28.3453 68.1973 29.372V28ZM63.4793 33.474C64.0113 34.006 64.6646 34.272 65.4393 34.272C66.2139 34.272 66.8673 34.006 67.3993 33.474C67.9313 32.9327 68.1973 32.2747 68.1973 31.5C68.1973 30.7253 67.9313 30.072 67.3993 29.54C66.8673 28.9987 66.2139 28.728 65.4393 28.728C64.6646 28.728 64.0113 28.9987 63.4793 29.54C62.9473 30.072 62.6813 30.7253 62.6813 31.5C62.6813 32.2747 62.9473 32.9327 63.4793 33.474ZM74.3397 35.168C73.285 35.168 72.4077 34.818 71.7077 34.118C71.0077 33.4087 70.6577 32.536 70.6577 31.5C70.6577 30.464 71.0077 29.596 71.7077 28.896C72.4077 28.1867 73.285 27.832 74.3397 27.832C75.0303 27.832 75.651 28 76.2017 28.336C76.7523 28.6627 77.1537 29.106 77.4057 29.666L76.6497 30.1C76.463 29.68 76.1597 29.3487 75.7397 29.106C75.329 28.854 74.8623 28.728 74.3397 28.728C73.565 28.728 72.9117 28.9987 72.3797 29.54C71.8477 30.072 71.5817 30.7253 71.5817 31.5C71.5817 32.2747 71.8477 32.9327 72.3797 33.474C72.9117 34.006 73.565 34.272 74.3397 34.272C74.8623 34.272 75.329 34.1507 75.7397 33.908C76.1503 33.656 76.4723 33.32 76.7057 32.9L77.4757 33.348C77.1863 33.908 76.7617 34.3513 76.2017 34.678C75.6417 35.0047 75.021 35.168 74.3397 35.168ZM83.7055 28V28.896H81.2275V35H80.3035V28.896H77.8255V28H83.7055ZM87.7921 27.832C88.8281 27.832 89.6635 28.2007 90.2981 28.938C90.9421 29.666 91.2641 30.5293 91.2641 31.528C91.2641 31.6307 91.2548 31.7753 91.2361 31.962H85.0901C85.1835 32.6713 85.4821 33.236 85.9861 33.656C86.4995 34.0667 87.1295 34.272 87.8761 34.272C88.4081 34.272 88.8655 34.1647 89.2481 33.95C89.6401 33.726 89.9341 33.4367 90.1301 33.082L90.9421 33.558C90.6341 34.0527 90.2141 34.4447 89.6821 34.734C89.1501 35.0233 88.5435 35.168 87.8621 35.168C86.7608 35.168 85.8648 34.8227 85.1741 34.132C84.4835 33.4413 84.1381 32.564 84.1381 31.5C84.1381 30.4547 84.4788 29.582 85.1601 28.882C85.8415 28.182 86.7188 27.832 87.7921 27.832ZM87.7921 28.728C87.0641 28.728 86.4528 28.9473 85.9581 29.386C85.4728 29.8153 85.1835 30.3753 85.0901 31.066H90.3121C90.2188 30.3287 89.9341 29.7547 89.4581 29.344C88.9821 28.9333 88.4268 28.728 87.7921 28.728ZM96.4859 27.832C97.4846 27.832 98.3339 28.1867 99.0339 28.896C99.7432 29.6053 100.098 30.4733 100.098 31.5C100.098 32.5267 99.7432 33.3947 99.0339 34.104C98.3339 34.8133 97.4846 35.168 96.4859 35.168C95.2446 35.168 94.3019 34.6547 93.6579 33.628V37.8H92.7339V28H93.6579V29.372C94.3019 28.3453 95.2446 27.832 96.4859 27.832ZM94.4559 33.474C94.9879 34.006 95.6412 34.272 96.4159 34.272C97.1906 34.272 97.8439 34.006 98.3759 33.474C98.9079 32.9327 99.1739 32.2747 99.1739 31.5C99.1739 30.7253 98.9079 30.072 98.3759 29.54C97.8439 28.9987 97.1906 28.728 96.4159 28.728C95.6412 28.728 94.9879 28.9987 94.4559 29.54C93.9239 30.072 93.6579 30.7253 93.6579 31.5C93.6579 32.2747 93.9239 32.9327 94.4559 33.474ZM111.014 28V35H110.09V28.896H106.058V35H105.134V28H111.014ZM116.72 27.832C117.719 27.832 118.568 28.1867 119.268 28.896C119.978 29.6053 120.332 30.4733 120.332 31.5C120.332 32.5267 119.978 33.3947 119.268 34.104C118.568 34.8133 117.719 35.168 116.72 35.168C115.479 35.168 114.536 34.6547 113.892 33.628V37.8H112.968V28H113.892V29.372C114.536 28.3453 115.479 27.832 116.72 27.832ZM114.69 33.474C115.222 34.006 115.876 34.272 116.65 34.272C117.425 34.272 118.078 34.006 118.61 33.474C119.142 32.9327 119.408 32.2747 119.408 31.5C119.408 30.7253 119.142 30.072 118.61 29.54C118.078 28.9987 117.425 28.728 116.65 28.728C115.876 28.728 115.222 28.9987 114.69 29.54C114.158 30.072 113.892 30.7253 113.892 31.5C113.892 32.2747 114.158 32.9327 114.69 33.474ZM126.965 28H127.749V35H126.825V29.61L122.653 35H121.869V28H122.793V33.39L126.965 28ZM132.811 35.168C131.803 35.168 130.963 34.8367 130.291 34.174C129.619 33.502 129.283 32.634 129.283 31.57C129.283 30.3753 129.46 29.4607 129.815 28.826C130.169 28.182 130.888 27.5987 131.971 27.076C132.176 26.9733 132.447 26.852 132.783 26.712C133.128 26.572 133.385 26.46 133.553 26.376C133.73 26.292 133.921 26.1847 134.127 26.054C134.332 25.914 134.486 25.76 134.589 25.592C134.691 25.424 134.757 25.2233 134.785 24.99L135.513 25.41C135.475 25.634 135.401 25.844 135.289 26.04C135.177 26.236 135.06 26.3947 134.939 26.516C134.827 26.6373 134.645 26.7727 134.393 26.922C134.15 27.062 133.959 27.1647 133.819 27.23C133.688 27.286 133.455 27.384 133.119 27.524C132.792 27.664 132.573 27.7573 132.461 27.804C131.807 28.084 131.327 28.378 131.019 28.686C130.711 28.9847 130.491 29.3767 130.361 29.862C130.678 29.442 131.079 29.134 131.565 28.938C132.059 28.7327 132.54 28.63 133.007 28.63C133.94 28.63 134.71 28.938 135.317 29.554C135.933 30.1607 136.241 30.94 136.241 31.892C136.241 32.8347 135.914 33.6187 135.261 34.244C134.617 34.86 133.8 35.168 132.811 35.168ZM132.811 34.244C133.539 34.244 134.136 34.0247 134.603 33.586C135.079 33.138 135.317 32.5733 135.317 31.892C135.317 31.2013 135.093 30.6367 134.645 30.198C134.206 29.75 133.618 29.526 132.881 29.526C132.218 29.526 131.616 29.736 131.075 30.156C130.533 30.5667 130.263 31.1173 130.263 31.808C130.263 32.5173 130.505 33.1007 130.991 33.558C131.485 34.0153 132.092 34.244 132.811 34.244ZM140.488 30.66C141.141 30.66 141.692 30.8653 142.14 31.276C142.597 31.6773 142.826 32.1953 142.826 32.83C142.826 33.4647 142.597 33.9873 142.14 34.398C141.692 34.7993 141.141 35 140.488 35H137.646V28H138.57V30.66H140.488ZM143.806 28H144.73V35H143.806V28ZM140.488 34.104C140.88 34.104 141.211 33.9873 141.482 33.754C141.762 33.5207 141.902 33.2127 141.902 32.83C141.902 32.4473 141.762 32.1393 141.482 31.906C141.211 31.6727 140.88 31.556 140.488 31.556H138.57V34.104H140.488ZM152.437 28V35H151.513V28.896H148.349V32.018C148.349 33.1847 148.125 33.9873 147.677 34.426C147.238 34.8647 146.631 35.056 145.857 35V34.132C146.389 34.188 146.781 34.062 147.033 33.754C147.294 33.446 147.425 32.8673 147.425 32.018V28H152.437ZM161.506 31.402C162.318 31.71 162.724 32.27 162.724 33.082C162.724 33.6607 162.495 34.1553 162.038 34.566C161.59 34.9673 160.946 35.168 160.106 35.168C158.697 35.168 157.773 34.608 157.334 33.488L158.118 33.026C158.407 33.8567 159.07 34.272 160.106 34.272C160.647 34.272 161.063 34.1553 161.352 33.922C161.651 33.6887 161.8 33.39 161.8 33.026C161.8 32.6993 161.679 32.4333 161.436 32.228C161.193 32.0227 160.867 31.92 160.456 31.92H159.434V31.024H160.176C160.577 31.024 160.89 30.926 161.114 30.73C161.347 30.5247 161.464 30.2447 161.464 29.89C161.464 29.554 161.329 29.2787 161.058 29.064C160.787 28.84 160.423 28.728 159.966 28.728C159.089 28.728 158.505 29.078 158.216 29.778L157.446 29.33C157.913 28.3313 158.753 27.832 159.966 27.832C160.703 27.832 161.291 28.028 161.73 28.42C162.169 28.8027 162.388 29.274 162.388 29.834C162.388 30.5527 162.094 31.0753 161.506 31.402ZM170.148 28H171.072V35H170.148V33.628C169.504 34.6547 168.562 35.168 167.32 35.168C166.322 35.168 165.468 34.8133 164.758 34.104C164.058 33.3947 163.708 32.5267 163.708 31.5C163.708 30.4733 164.058 29.6053 164.758 28.896C165.468 28.1867 166.322 27.832 167.32 27.832C168.562 27.832 169.504 28.3453 170.148 29.372V28ZM165.43 33.474C165.962 34.006 166.616 34.272 167.39 34.272C168.165 34.272 168.818 34.006 169.35 33.474C169.882 32.9327 170.148 32.2747 170.148 31.5C170.148 30.7253 169.882 30.072 169.35 29.54C168.818 28.9987 168.165 28.728 167.39 28.728C166.616 28.728 165.962 28.9987 165.43 29.54C164.898 30.072 164.632 30.7253 164.632 31.5C164.632 32.2747 164.898 32.9327 165.43 33.474ZM178.349 25.2H179.189V35H178.209V26.278L176.011 26.936L175.759 26.096L178.349 25.2ZM185.795 29.946C186.289 30.1793 186.681 30.506 186.971 30.926C187.269 31.3367 187.419 31.808 187.419 32.34C187.419 33.2267 187.106 33.922 186.481 34.426C185.855 34.9207 185.076 35.168 184.143 35.168C183.209 35.168 182.43 34.9207 181.805 34.426C181.179 33.922 180.867 33.2267 180.867 32.34C180.867 31.808 181.011 31.3367 181.301 30.926C181.599 30.506 181.996 30.1793 182.491 29.946C181.623 29.4513 181.189 28.7187 181.189 27.748C181.189 26.8707 181.478 26.1987 182.057 25.732C182.645 25.2653 183.34 25.032 184.143 25.032C184.945 25.032 185.636 25.2653 186.215 25.732C186.803 26.1987 187.097 26.8707 187.097 27.748C187.097 28.7187 186.663 29.4513 185.795 29.946ZM185.543 26.418C185.169 26.1287 184.703 25.984 184.143 25.984C183.583 25.984 183.111 26.1287 182.729 26.418C182.355 26.7073 182.169 27.1507 182.169 27.748C182.169 28.308 182.36 28.742 182.743 29.05C183.135 29.358 183.601 29.512 184.143 29.512C184.684 29.512 185.146 29.358 185.529 29.05C185.921 28.742 186.117 28.308 186.117 27.748C186.117 27.1507 185.925 26.7073 185.543 26.418ZM182.477 33.74C182.897 34.0573 183.452 34.216 184.143 34.216C184.833 34.216 185.389 34.0573 185.809 33.74C186.229 33.4133 186.439 32.9467 186.439 32.34C186.439 31.7333 186.229 31.2713 185.809 30.954C185.389 30.6273 184.833 30.464 184.143 30.464C183.452 30.464 182.897 30.6273 182.477 30.954C182.057 31.2713 181.847 31.7333 181.847 32.34C181.847 32.9467 182.057 33.4133 182.477 33.74ZM199.317 28V35H198.393V29.414L195.943 33.39H195.831L193.381 29.414V35H192.457V28H193.521L195.887 31.836L198.253 28H199.317ZM206.371 28H207.155V35H206.231V29.61L202.059 35H201.275V28H202.199V33.39L206.371 28ZM214.065 28H214.989V35H214.065V31.948H210.033V35H209.109V28H210.033V31.052H214.065V28ZM221.983 28H222.963L219.967 35.644C219.696 36.3347 219.309 36.876 218.805 37.268C218.31 37.6693 217.755 37.8467 217.139 37.8V36.932C217.979 37.0253 218.618 36.54 219.057 35.476L219.239 35.042L216.103 28H217.083L219.715 33.866L221.983 28ZM229.12 28V28.896H226.642V35H225.718V28.896H223.24V28H229.12Z" fill="#272727"/>
<path d="M35.014 6.43357C34.9304 5.49516 34.1568 4.78749 33.2146 4.78749H28.5407V4.09868H28.6316C29.2991 4.09868 29.842 3.5557 29.842 2.88835V1.21033C29.842 0.542984 29.2991 0 28.6316 0H14.8749C14.5756 0 14.333 0.242587 14.333 0.541972C14.333 0.841357 14.5756 1.08394 14.8749 1.08394H28.6316C28.7014 1.08394 28.7581 1.1406 28.7581 1.21033V2.88835C28.7581 2.95808 28.7014 3.01474 28.6316 3.01474H8.36867C8.29894 3.01474 8.24221 2.95808 8.24221 2.88835V1.21033C8.24221 1.1406 8.29894 1.08394 8.36867 1.08394H12.3338C12.6331 1.08394 12.8758 0.841357 12.8758 0.541972C12.8758 0.242587 12.6331 0 12.3338 0H8.36867C7.70125 0 7.15827 0.542984 7.15827 1.21033V2.88835C7.15827 3.5557 7.70125 4.09868 8.36867 4.09868H8.45965V4.78749H3.78568C2.84352 4.78749 2.06994 5.49516 1.98626 6.43357C1.97528 6.55627 1.73175 9.47736 2.92792 12.7126C4.02234 15.6726 6.53319 19.4521 12.286 20.9354C13.2122 21.6671 14.2697 22.2397 15.417 22.6108L15.6898 23.0611C16.2054 23.9122 16.4779 24.9185 16.4779 25.971C16.4779 26.6139 16.3754 27.242 16.1734 27.8377L15.7946 28.954H14.5342C13.2409 28.954 12.1886 30.0063 12.1886 31.2998V32.4351H10.2161C9.65943 32.4351 9.20656 32.888 9.20656 33.4447V35.9905C9.20656 36.5471 9.65943 37 10.2161 37H26.7843C27.3409 37 27.7938 36.5471 27.7938 35.9905V33.4447C27.7938 32.888 27.3409 32.4351 26.7843 32.4351H24.8118V31.2998C24.8118 30.0063 23.7595 28.954 22.4662 28.954H21.2058L20.827 27.8377C20.6249 27.2421 20.5224 26.614 20.5224 25.971C20.5224 24.9186 20.7949 23.9123 21.3105 23.0611L21.5833 22.6108C22.7306 22.2397 23.7881 21.6672 24.7143 20.9354C30.4671 19.4521 32.978 15.6726 34.0724 12.7126C35.2686 9.47736 35.025 6.55634 35.014 6.43357ZM8.66032 15.0563C7.6498 14.1102 6.87565 12.9366 6.34617 11.5378C5.97828 10.5659 5.7375 9.5106 5.63034 8.40064H8.45965V13.0552C8.45965 13.7403 8.52895 14.4094 8.66032 15.0563ZM3.94466 12.3367C2.83217 9.32784 3.0559 6.6427 3.06594 6.5299C3.0994 6.15456 3.40883 5.87151 3.78568 5.87151H8.45965V7.31677H5.58546C5.29265 7.31677 5.01169 7.44084 4.81456 7.6572C4.61721 7.87384 4.51966 8.16549 4.5469 8.45744C4.661 9.68034 4.92527 10.8459 5.3324 11.9216C6.13647 14.046 7.43799 15.7048 9.21957 16.8857C9.57011 17.7317 10.0331 18.5198 10.59 19.2313C6.66334 17.6037 4.81406 14.688 3.94466 12.3367ZM26.7099 33.519V35.9161H10.2904V33.519H26.7099ZM22.4662 30.038C23.1618 30.038 23.7279 30.604 23.7279 31.2998V32.4351H13.2725V31.2998C13.2725 30.604 13.8385 30.038 14.5342 30.038H22.4662ZM19.8006 28.186L20.0612 28.954H16.9391L17.1997 28.1859C17.4399 27.4778 17.5617 26.7327 17.5617 25.971C17.5617 24.9049 17.3235 23.8757 16.8704 22.9628C17.401 23.0498 17.9452 23.0957 18.5002 23.0957C19.055 23.0957 19.5993 23.0498 20.1298 22.9628C19.6767 23.8757 19.4385 24.9049 19.4385 25.971C19.4386 26.7327 19.5603 27.4779 19.8006 28.186ZM18.5002 22.0117C13.5615 22.0117 9.54359 17.9938 9.54359 13.0552V4.09868H27.4567V13.0552C27.4567 17.9939 23.4388 22.0117 18.5002 22.0117ZM33.0557 12.3367C32.1863 14.6881 30.337 17.604 26.4101 19.2316C26.968 18.5189 27.4317 17.7293 27.7825 16.8815C29.3123 15.8657 30.4904 14.4976 31.3016 12.7845C31.4297 12.5141 31.3142 12.1908 31.0438 12.0628C30.7734 11.9347 30.4502 12.0501 30.322 12.3206C29.8198 13.3812 29.1574 14.295 28.3395 15.0596C28.4714 14.4118 28.5408 13.7415 28.5408 13.0553V8.40071H31.3701C31.3162 8.95836 31.2266 9.51139 31.1037 10.0453C31.0365 10.337 31.2186 10.6279 31.5103 10.695C31.8017 10.7625 32.0929 10.5802 32.16 10.2884C32.2969 9.69378 32.3956 9.07774 32.4535 8.45744C32.4808 8.16549 32.3832 7.87384 32.1859 7.6572C31.9888 7.44084 31.7078 7.31677 31.415 7.31677H28.5408V5.87151H33.2148C33.5916 5.87151 33.901 6.15456 33.9345 6.52997C33.9444 6.6427 34.1681 9.32784 33.0557 12.3367Z" fill="#00CD95"/>
<path d="M22.0645 10.5264L20.5104 10.3006C20.4427 10.2907 20.3842 10.2482 20.354 10.1869L19.6589 8.77862C19.4398 8.33449 18.9959 8.05859 18.5006 8.05859C18.0053 8.05859 17.5615 8.33449 17.3423 8.77862L16.6473 10.1869C16.617 10.2482 16.5586 10.2907 16.4909 10.3006L14.9368 10.5264C14.4466 10.5976 14.0471 10.9344 13.894 11.4055C13.741 11.8765 13.8662 12.3839 14.2209 12.7297L15.3454 13.8258C15.3944 13.8735 15.4167 13.9422 15.4052 14.0097L15.1397 15.5576C15.0559 16.0457 15.2529 16.5298 15.6536 16.8209C16.0542 17.1119 16.5755 17.1497 17.014 16.9193L18.404 16.1885C18.4645 16.1566 18.5368 16.1566 18.5973 16.1885L19.9874 16.9193C20.1781 17.0195 20.3844 17.069 20.5896 17.069C20.8563 17.069 21.1213 16.9854 21.3477 16.8208C21.7484 16.5297 21.9453 16.0456 21.8616 15.5575L21.5961 14.0097C21.5845 13.9422 21.6069 13.8734 21.6559 13.8258L22.7805 12.7295C23.1351 12.3838 23.2604 11.8764 23.1073 11.4054C22.9543 10.9344 22.5546 10.5976 22.0645 10.5264ZM22.0238 11.9534L20.8992 13.0497C20.5947 13.3464 20.4559 13.7738 20.5277 14.1929L20.7932 15.7408C20.8122 15.8516 20.7495 15.9157 20.7105 15.9441C20.6716 15.9725 20.5912 16.0124 20.4917 15.9599L19.1016 15.2291C18.9135 15.1302 18.707 15.0807 18.5006 15.0807C18.2941 15.0807 18.0877 15.1302 17.8995 15.2291L16.5095 15.9599C16.4101 16.0123 16.3297 15.9724 16.2906 15.9441C16.2516 15.9157 16.189 15.8516 16.208 15.7408L16.4734 14.1929C16.5453 13.7738 16.4065 13.3464 16.1019 13.0496L14.9774 11.9535C14.8969 11.875 14.9098 11.7864 14.9248 11.7405C14.9397 11.6946 14.9813 11.6152 15.0925 11.599L16.6466 11.3732C17.0674 11.312 17.431 11.0479 17.6192 10.6666L18.3142 9.25838C18.3639 9.15757 18.4523 9.14254 18.5005 9.14254C18.5487 9.14254 18.6371 9.15757 18.6868 9.25838L19.3818 10.6666C19.57 11.0479 19.9335 11.3121 20.3544 11.3732L21.9086 11.599C22.0198 11.6152 22.0614 11.6946 22.0763 11.7405C22.0913 11.7864 22.1042 11.875 22.0238 11.9534Z" fill="#00CD95"/>
</svg>
