<svg width="37" height="37" viewBox="0 0 37 37" fill="none" xmlns="http://www.w3.org/2000/svg">
<path d="M27.7206 0H9.25C4.16984 0 0 4.16984 0 9.27937V27.75C0 32.8302 4.16984 37 9.25 37H27.7206C32.8302 37 37 32.8302 37 27.7206V9.27937C37 4.16984 32.8302 0 27.7206 0ZM17.5016 7.60556C17.5603 6.69524 18.4119 7.01825 18.8524 6.95952C24.373 7.13572 29.1302 12.0984 29.0714 17.4429C29.0714 17.9714 29.2476 18.7349 28.4548 18.7349C27.6913 18.7349 27.8968 17.9421 27.8087 17.4135C27.0746 11.746 24.4317 9.07381 18.6762 8.19286C18.2064 8.13413 17.4722 8.22222 17.5016 7.60556ZM25.7532 17.6778C24.8722 17.7952 25.0484 17.0317 24.9603 16.5325C24.373 13.0675 23.1397 11.8048 19.5865 11.0413C19.0579 10.9238 18.2357 11.0119 18.3825 10.219C18.5 9.45556 19.2341 9.71984 19.7921 9.77857C23.3452 10.1897 26.2524 13.2143 26.223 16.5325C26.1643 16.8849 26.3992 17.5603 25.7532 17.6778ZM23.5508 15.8571C23.5508 16.327 23.4921 16.7675 22.9635 16.8262C22.5817 16.8849 22.3468 16.5619 22.2881 16.1802C22.1413 14.7706 21.3778 13.919 19.9095 13.6841C19.469 13.6254 19.0579 13.4786 19.2635 12.8913C19.4103 12.5095 19.7627 12.4508 20.1444 12.4508C21.7302 12.4214 23.5508 14.2714 23.5508 15.8571ZM29.1302 26.6929C28.5135 28.3667 26.4286 30.0698 24.6373 30.0405C24.373 29.9817 23.8738 29.8937 23.4333 29.7175C15.5635 26.3992 9.8373 20.9373 6.60714 13.1262C5.52064 10.5127 6.66587 8.28095 9.39683 7.4C9.89603 7.22381 10.3659 7.22381 10.8651 7.4C12.0397 7.81111 15.0056 11.8341 15.0643 13.0087C15.123 13.919 14.477 14.4183 13.8603 14.8294C12.6564 15.6222 12.6564 16.6206 13.1849 17.7659C14.3302 20.2913 16.2976 22.0532 18.8524 23.169C19.7627 23.5802 20.673 23.5508 21.2897 22.6111C22.4056 20.9373 23.7857 21.0254 25.2833 22.0532C26.0468 22.5817 26.8103 23.081 27.5151 23.6389C28.4841 24.4317 29.7175 25.0778 29.1302 26.6929Z" fill="#00CD95"/>
</svg>
